<svg width="280" height="60" viewBox="0 0 280 60" fill="none" xmlns="http://www.w3.org/2000/svg">
<rect y="32" width="280" height="28" fill="#648181"/>
<path d="M3.40802 53.2H23.7C39.584 53.2 50.224 42.788 50.224 27.132C50.224 11.476 39.584 1.064 23.7 1.064H3.40802V53.2ZM13.592 44.08V10.184H23.7C33.504 10.184 40.04 16.948 40.04 27.132C40.04 37.316 33.504 44.08 23.7 44.08H13.592Z" fill="#1E1E1E"/>
<path d="M56.6229 53.2H66.8069V1.064H56.6229V53.2Z" fill="#1E1E1E"/>
<path d="M89.3171 39.064H98.4371V24.092H113.637V16.036H98.4371V1.064H89.3171V16.036H74.1171V24.092H89.3171V39.064Z" fill="#1E1E1E"/>
<path d="M135.852 53.2H144.972V38.228H160.172V30.172H144.972V15.2H135.852V30.172H120.652V38.228H135.852V53.2Z" fill="#1E1E1E"/>
<path d="M192.799 54.264C209.063 54.264 219.931 43.396 219.931 27.132C219.931 10.868 209.063 0 192.799 0C176.535 0 165.667 10.868 165.667 27.132C165.667 43.396 176.535 54.264 192.799 54.264ZM192.799 45.144C182.615 45.144 175.851 37.924 175.851 27.132C175.851 16.34 182.615 9.12 192.799 9.12C202.983 9.12 209.747 16.34 209.747 27.132C209.747 37.924 202.983 45.144 192.799 45.144Z" fill="#1E1E1E"/>
<path d="M250.987 54.264C266.263 54.264 276.447 43.396 276.447 27.056V23.636H248.707V32.756H265.883C263.983 40.204 257.979 45.144 250.987 45.144C240.803 45.144 234.039 37.924 234.039 27.056C234.039 16.264 240.803 9.12 250.987 9.12C256.003 9.12 261.171 12.312 263.907 17.1L273.407 14.744C268.847 5.928 259.879 0 250.987 0C234.723 0 223.855 10.792 223.855 27.056C223.855 43.396 234.723 54.264 250.987 54.264Z" fill="#1E1E1E"/>
</svg>
