<svg width="280" height="61" viewBox="0 0 280 61" fill="none" xmlns="http://www.w3.org/2000/svg">
<rect y="33" width="280" height="28" fill="#648181"/>
<path d="M3.40802 54H23.7C39.584 54 50.224 43.588 50.224 27.932C50.224 12.276 39.584 1.86399 23.7 1.86399H3.40802V54ZM13.592 44.88V10.984H23.7C33.504 10.984 40.04 17.748 40.04 27.932C40.04 38.116 33.504 44.88 23.7 44.88H13.592Z" fill="#F0F0F0"/>
<path d="M56.6229 54H66.8069V1.86399H56.6229V54Z" fill="#F0F0F0"/>
<path d="M89.3171 39.864H98.4371V24.892H113.637V16.836H98.4371V1.86399H89.3171V16.836H74.1171V24.892H89.3171V39.864Z" fill="#F0F0F0"/>
<path d="M135.852 54H144.972V39.028H160.172V30.972H144.972V16H135.852V30.972H120.652V39.028H135.852V54Z" fill="#F0F0F0"/>
<path d="M192.799 55.064C209.063 55.064 219.931 44.196 219.931 27.932C219.931 11.668 209.063 0.799988 192.799 0.799988C176.535 0.799988 165.667 11.668 165.667 27.932C165.667 44.196 176.535 55.064 192.799 55.064ZM192.799 45.944C182.615 45.944 175.851 38.724 175.851 27.932C175.851 17.14 182.615 9.91999 192.799 9.91999C202.983 9.91999 209.747 17.14 209.747 27.932C209.747 38.724 202.983 45.944 192.799 45.944Z" fill="#F0F0F0"/>
<path d="M250.987 55.064C266.263 55.064 276.447 44.196 276.447 27.856V24.436H248.707V33.556H265.883C263.983 41.004 257.979 45.944 250.987 45.944C240.803 45.944 234.039 38.724 234.039 27.856C234.039 17.064 240.803 9.91999 250.987 9.91999C256.003 9.91999 261.171 13.112 263.907 17.9L273.407 15.544C268.847 6.72799 259.879 0.799988 250.987 0.799988C234.723 0.799988 223.855 11.592 223.855 27.856C223.855 44.196 234.723 55.064 250.987 55.064Z" fill="#F0F0F0"/>
</svg>
